<svg width="292" height="452" viewBox="0 0 292 452" fill="none" xmlns="http://www.w3.org/2000/svg">
<path d="M236 10.5L204.5 42.5L187.5 75.5L179.717 98.8457L155 91H149.85L151.5 90.5V82.9102L139.676 67.5391L88.7822 54.6973L38.2803 74.9873L30.5 95.5L35.5 110L67 87L103.5 83L123.66 91H114.5L101.5 106.5L103.312 116.188L68.6455 121.677L46.2188 137.145L74.5 124L104.07 120.244L108.614 144.538L106 146.5H99.5L66.5 140.5L37 156.458L14.5 221.673V352.116L16.9473 361.656L38 401L85.5 407L121 390L183.5 294.5L205 219L183.5 171L201.606 162.592L190.874 140.745L194.04 129.047L196.027 133.093L235.5 174.5H262V144.5L249.286 120.388L221.03 101.656L188.185 105.856L186.5 101L179.779 98.8662L222.97 93.3438L269.805 124.392L291.237 182.938L277.383 224.5H254.697L240.417 208.346L238.4 237.695L200.053 325.127L123.051 423.037L67.9863 451.109L21.1426 434.338L0.5 353.884V219.326L31.1328 130.543L32.5508 129.563L10.9395 135.486L5.77148 110.291L29.749 69.7939L88.2168 46.3027L144.324 60.4609L165.582 88.0967L180.5 54L204.5 23.5L236 0.5V10.5Z" fill="black"/>
<path fill-rule="evenodd" clip-rule="evenodd" d="M204.323 104.297L221.392 136.231L200.769 189.64L150.003 222.954L107.294 207.075L92.9541 162.992L97.1084 105.865L114.195 86.5H157.738L204.323 104.297ZM105.791 108.113L120 168.5L155 175L182.5 141.5L180.614 103.803L156.263 94.5H117.805L105.791 108.113Z" fill="black"/>
<path d="M20.528 311V228.568H80.432V244.44H41.136V261.72H75.696V277.848H41.136V311H20.528Z" fill="black"/>
<path d="M114.643 312.28C109.182 312.28 104.062 311.853 99.283 311C94.5897 310.232 90.5363 309.08 87.123 307.544V290.008C90.8777 291.629 95.0163 292.952 99.539 293.976C104.147 295 108.499 295.512 112.595 295.512C117.715 295.512 121.512 295.043 123.987 294.104C126.547 293.165 127.827 291.117 127.827 287.96C127.827 285.827 127.187 284.12 125.907 282.84C124.712 281.56 122.707 280.451 119.891 279.512C117.16 278.488 113.406 277.293 108.627 275.928C102.995 274.221 98.515 272.344 95.187 270.296C91.859 268.163 89.4697 265.603 88.019 262.616C86.5683 259.629 85.843 255.96 85.843 251.608C85.843 243.757 88.659 237.741 94.291 233.56C99.923 229.379 108.243 227.288 119.251 227.288C124.03 227.288 128.68 227.672 133.203 228.44C137.726 229.123 141.395 229.933 144.211 230.872V248.536C140.542 247.085 136.83 246.019 133.075 245.336C129.406 244.653 125.822 244.312 122.323 244.312C117.715 244.312 113.96 244.739 111.059 245.592C108.243 246.445 106.835 248.408 106.835 251.48C106.835 253.272 107.347 254.723 108.371 255.832C109.395 256.856 111.144 257.795 113.619 258.648C116.179 259.501 119.635 260.525 123.987 261.72C130.728 263.512 135.891 265.688 139.475 268.248C143.059 270.723 145.534 273.624 146.899 276.952C148.264 280.195 148.947 283.864 148.947 287.96C148.947 295.213 146.131 301.101 140.499 305.624C134.867 310.061 126.248 312.28 114.643 312.28Z" fill="black"/>
</svg>
